<svg width="96" height="96" xmlns="http://www.w3.org/2000/svg" xmlns:xlink="http://www.w3.org/1999/xlink" overflow="hidden"><defs><clipPath id="clip0"><rect x="112" y="54" width="96" height="96"/></clipPath></defs><g clip-path="url(#clip0)" transform="translate(-112 -54)"><path d="M185 79.776 185 70 173.493 70 160 58.7 146.507 70 135 70 135 79.776 122 90.529 122 144 198 144 198 90.529ZM185 82.376 195.516 91.076 185 101.586ZM160 61.305 170.378 70 149.622 70ZM137 72 183 72 183 103.586 170.948 115.638C164.619 110.314 155.377 110.314 149.048 115.638L137 103.586ZM135 82.372 135 101.586 124.484 91.07ZM124.017 93.431 147.586 117 124.017 140.569C124.013 140.573 124.007 140.573 124.003 140.569 124.001 140.567 124 140.565 124 140.562L124 93.438C124 93.4325 124.005 93.4281 124.01 93.4281 124.013 93.4282 124.015 93.4292 124.017 93.431ZM125.438 142C125.433 142 125.428 141.995 125.428 141.99 125.428 141.987 125.429 141.985 125.431 141.983L149.394 118.021C155.255 112.172 164.745 112.172 170.606 118.021L194.569 141.983C194.573 141.987 194.573 141.993 194.569 141.997 194.567 141.999 194.565 142 194.562 142ZM195.983 140.569 172.414 117 195.983 93.431C195.987 93.4271 195.993 93.4272 195.997 93.4311 195.999 93.433 196 93.4354 196 93.438L196 140.562C196 140.568 195.995 140.572 195.99 140.572 195.987 140.572 195.985 140.571 195.983 140.569Z" fill="#FFFFFF"/><path d="M157.733 104.807C158.484 104.935 159.244 104.999 160.005 105 162.057 105.002 164.08 104.514 165.905 103.577 166.415 103.365 166.656 102.779 166.443 102.269 166.231 101.759 165.646 101.518 165.136 101.731 165.089 101.75 165.044 101.773 165 101.8 159.589 104.561 152.964 102.413 150.202 97.0019 147.441 91.5906 149.589 84.9654 155 82.204 156.777 81.2974 158.766 80.8909 160.756 81.028 166.612 81.5358 171.082 86.4789 171 92.356L171 95C171 95.5523 170.552 96 170 96L169.363 96C167.506 95.9978 166.002 94.4928 166 92.636L166 92C166.012 88.6747 163.325 85.9696 160 85.9579 156.675 85.9463 153.97 88.6325 153.958 91.9578 153.946 95.2831 156.633 97.9882 159.958 97.9999 161.894 98.0066 163.716 97.0816 164.853 95.514 165.833 97.0589 167.534 97.9964 169.363 98L170 98C171.657 98 173 96.6569 173 95L173 92.356C173.081 85.4251 167.794 79.609 160.887 79.03 153.727 78.5056 147.497 83.8852 146.972 91.0458 146.484 97.7185 151.139 103.672 157.733 104.807ZM160 96C157.791 96 156 94.2091 156 92 156 89.7909 157.791 88 160 88 162.209 88 164 89.7909 164 92 164 94.2091 162.209 96 160 96Z" fill="#FFFFFF"/></g></svg>